<?xml version="1.0" encoding="utf-8"?>
<!-- Generator: Adobe Illustrator 25.2.1, SVG Export Plug-In . SVG Version: 6.00 Build 0)  -->
<svg version="1.1" id="Layer_1" xmlns="http://www.w3.org/2000/svg" xmlns:xlink="http://www.w3.org/1999/xlink" x="0px" y="0px"
	 viewBox="0 0 452.54 254.02" style="enable-background:new 0 0 452.54 254.02;" xml:space="preserve">
<style type="text/css">
	.st0{fill:#FFFFFF;}
</style>
<g>
	<path class="st0" d="M450.67,135.5c-0.66-4.32-1.67-8.58-1.9-12.95c0.16-0.11,0.28-0.25,0.26-0.48
		c-0.86-11.07-4.48-22.22-8.98-32.32c-4.14-9.3-9.35-18.52-16.13-26.17c-14-15.78-32.1-27.04-50.68-36.64
		c-9.46-4.88-19.05-9.35-29.16-12.73c-11.19-3.74-22.68-6.63-34.22-9.08c-11.48-2.44-23.18-4.57-34.94-5.02
		c-11.06-0.42-22.15,0.31-33.11,1.82c-12.15,1.68-24.09,4.54-35.86,7.95c-12.87,3.73-25.62,7.68-38.28,12.06
		c-1.69-3.28-3.75-6.78-6.5-8.89c-0.82-0.63-1.75-0.31-2.32,0.35c-0.43-0.24-0.95-0.29-1.5,0.11c-2.63,1.89-4.62,4.33-6.37,6.96
		c-5.63,3.25-10.33,8.38-14.38,13.38c-13.76,2.74-28.01,5.4-40.54,11.97c-10.11,5.3-21.11,13.67-25.25,24.72
		c-0.08,0.21-0.1,0.4-0.1,0.58c-0.43,0.01-0.87,0.01-1.3,0.02c-5.28,0.07-10.57,0.19-15.83,0.74c-4.98,0.53-10.02,1.35-14.76,2.98
		c-4.09,1.4-9.14,3.68-11.76,7.4c-0.57,0.33-1.13,0.69-1.67,1.11c-0.89,0.7-0.5,2.16,0.34,2.67c6.3,3.84,12.57,7.67,19.11,11.09
		c5.08,2.66,10.2,5.32,15.58,7.33c0.08,2.73,0.67,5.53,1.06,8.16c0.61,4.05,1.27,8.09,2.15,12.09c0.2,0.93,0.42,1.87,0.65,2.8
		c-14.65,0.81-29.3,1.71-43.96,2.13c-2.77,0.08-5.81-0.17-8.26,1.36c-2.13,1.33-3.54,3.65-4.79,5.76
		c-2.14,3.62-3.75,10.58,2.03,11.89c0.02,0.01,0.04,0,0.06,0c0.15,1.01,0.46,1.96,1.27,2.69c0.99,0.9,2.31,1.45,3.48,2.09l0.77,0.42
		c-1.94-0.13-3.88-0.26-5.81-0.39c-1.91-0.13-3.91-0.46-5.82-0.15c-1.69,0.28-3.14,1.48-3.24,3.27c-0.11,1.8,1.11,3.44,2.28,4.7
		c0.27,0.29,0.57,0.4,0.87,0.38c-0.1,0.83,0.37,1.74,1.48,1.78c3.03,0.12,6.06,0.2,9.09,0.28c1.15,2.37,2.56,4.59,3.44,7.12
		c1.07,3.05,1.65,6.17,1.86,9.39c0.38,5.78,0.73,12.63-3.19,17.38c-0.26,0.32-0.27,0.68-0.16,0.97c-1.89,0.15-3.75,0.41-5.57,0.92
		c-1,0.28-1.41,1.23-1.27,2.09c-0.36,0.55-0.65,1.16-0.74,1.82c-0.13,0.93,0.07,1.86,0.51,2.69c0.44,0.85,1.22,1.62,2.15,1.88
		c0.19,0.05,0.4,0.05,0.61,0.01c0.21,0.33,0.55,0.58,1.05,0.57c17.84-0.08,35.67,0.33,53.52,0.18c16.87-0.15,33.73-0.25,50.6-0.43
		c5.13-0.06,10.26-0.25,15.4-0.37c3.89-0.1,8.06-0.04,12.03-0.49c0.13,1.47,0.56,2.91,1.43,4.23c2.48,3.74,7.15,4.96,11.33,5.54
		c4.64,0.65,9.28,1.23,13.91,1.84c-2.04,0.25-4.08,0.5-6.12,0.66c-8.77,0.71-17.65,0.36-26.33-1.1c-4.24-0.71-8.41-1.7-12.53-2.91
		c-3.28-0.96-6.79-2.1-10.24-1.36c-5.83,1.26-9.02,7.79-8.42,13.41c-0.13,0.28-0.21,0.57-0.21,0.88c-0.04,0.42-0.08,0.83-0.12,1.25
		c-0.01,0.15,0.06,0.27,0.09,0.41c-0.01,0-0.02-0.01-0.04-0.01c-0.3-0.03-0.59,0.29-0.58,0.58c0,0.07,0.02,0.14,0.04,0.21
		c-0.02,0.21,0,0.43,0.09,0.61c0.18,0.37,0.39,0.73,0.61,1.08c0.18,0.27,0.38,0.52,0.61,0.75c0.27,0.26,0.55,0.42,0.88,0.57
		c0.19,0.12,0.4,0.19,0.62,0.2c0.22,0.05,0.44,0.04,0.66-0.03c0.36-0.1,0.72-0.37,0.93-0.69c-0.09,0.61-0.18,1.22-0.27,1.82
		c-0.13,0.86,0.21,1.55,1.05,1.86c2.44,0.89,4.96,1.53,7.43,2.34c2.47,0.81,4.9,1.73,7.34,2.64c0.13,0.05,0.27,0.03,0.41,0.04
		c0.1,0.06,0.2,0.11,0.3,0.15c8.64,3.01,18,3.9,27.11,3.92c10.1,0.02,20.2-0.15,30.3-0.07c9.98,0.08,19.97,0.44,29.9,1.5
		c10.06,1.08,20.06,2.93,30.17,3.52c8.33,0.49,16.8,1.79,24.42-2.18c9.69,2.6,19.67,3.93,29.69,4.49
		c12.59,0.7,25.29,0.49,37.88-0.14c12.62-0.63,25.3-1.99,37.58-5.06c21.24-5.3,41-15.94,54.32-33.67
		c13.34-17.75,23.19-40.48,24.26-62.83c0.27-5.58-0.13-10.99-1.31-16.45C451.09,135.19,450.65,135.24,450.67,135.5z"/>
	<path d="M140.49,134.62c2.38-3.85,4.78-7.78,8.34-10.66c1.67-1.35,3.54-2.64,5.59-3.34c1.9-0.65,3.99-0.67,5.97-0.55
		c0.43,0.03,0.57,0.72,0.11,0.79c-2.01,0.3-3.61,1.31-5.3,2.37c-1.57,0.99-2.97,2.13-4.22,3.51c-2.71,2.99-4.8,6.55-6.82,10.02
		C142.79,139.13,139.05,136.95,140.49,134.62z M104.99,138.93c-1.96-0.53-3.98-0.63-5.99-0.88c-1.8-0.22-3.69-0.21-5.51-0.22
		c-0.01,0-0.01,0-0.02,0c-0.03,0-0.06,0-0.09,0c-0.12,0-0.25,0-0.37,0c-0.03,0-0.05,0.01-0.07,0.02c-0.55,0.01-1.09,0.03-1.64,0.05
		c-0.24,0.01-0.48,0.1-0.65,0.27c-0.16,0.16-0.28,0.42-0.27,0.65c0.02,0.51,0.41,0.91,0.92,0.92c0.73,0.02,1.45,0.04,2.18,0.06
		c0.21,0.01,0.41-0.09,0.58-0.22c1.55,0.29,3.05,0.66,4.6,1.04c1.95,0.49,3.82,1.3,5.73,1.94c1.87,0.63,3.71,1.35,5.49,2.2
		c0.93,0.44,1.89,1.06,2.89,1.24c1.08,0.2,2.18-0.34,2.39-1.47c0.41-2.27-2.84-3.1-4.43-3.72
		C108.85,140.08,106.93,139.45,104.99,138.93z M452.46,151.9c-1.07,22.35-10.92,45.08-24.26,62.83
		c-13.32,17.72-33.08,28.36-54.32,33.67c-12.28,3.07-24.96,4.43-37.58,5.06c-12.59,0.63-25.29,0.84-37.88,0.14
		c-10.02-0.56-20-1.89-29.69-4.49c-7.62,3.98-16.09,2.67-24.42,2.18c-10.11-0.59-20.11-2.44-30.17-3.52
		c-9.93-1.06-19.92-1.42-29.9-1.5c-10.1-0.08-20.2,0.09-30.3,0.07c-9.11-0.02-18.47-0.9-27.11-3.92c-0.1-0.04-0.2-0.09-0.3-0.15
		c-0.14-0.01-0.28,0.01-0.41-0.04c-2.44-0.9-4.87-1.83-7.34-2.64c-2.47-0.81-4.99-1.46-7.43-2.34c-0.84-0.31-1.18-1-1.05-1.86
		c0.09-0.61,0.18-1.22,0.27-1.82c-0.21,0.32-0.57,0.59-0.93,0.69c-0.22,0.07-0.44,0.08-0.66,0.03c-0.22-0.01-0.43-0.08-0.62-0.2
		c-0.33-0.15-0.61-0.31-0.88-0.57c-0.23-0.23-0.43-0.47-0.61-0.75c-0.22-0.35-0.43-0.71-0.61-1.08c-0.09-0.18-0.11-0.4-0.09-0.61
		c-0.01-0.07-0.03-0.14-0.04-0.21c-0.02-0.29,0.28-0.6,0.58-0.58c0.06,0.01,0.12,0.02,0.17,0.03c0.17-0.03,0.34-0.04,0.5,0.02
		c0.06,0.02,0.11,0.04,0.17,0.06c0.12,0.04,0.24,0.08,0.35,0.11c0.25,0.07,0.51,0.12,0.77,0.16c-0.13-0.02-0.27-0.04-0.4-0.05
		c0.3,0.04,0.6,0.09,0.89,0.18c0.3,0.09,0.58,0.27,0.86,0.4c0.37,0.17,0.61,0.57,0.74,0.94c0.21-1.42,0.42-2.85,0.67-4.26
		c0.35-2,0.96-4.04,2.42-5.53c3.36-3.44,8.49-2.17,12.74-2.74c1.28-0.17,1.56,2.04,0.3,2.24c-2.18,0.36-4.37,0.23-6.56,0.45
		c-1.66,0.17-3.47,0.64-4.62,1.91c-1.19,1.31-1.45,3.26-1.66,4.94c-0.22,1.79-0.44,3.58-0.65,5.37c2.08,0.37,4.12,0.91,6.16,1.48
		c2,0.56,3.98,1.17,5.95,1.84c-0.23-2.01-0.39-4.02-0.38-6.11c0.01-2.24-0.41-5.6,0.71-7.65c1.12-2.05,3.63-1.78,5.61-1.71
		c3.08,0.11,6.21,0.32,9.1,1.45c1.47,0.57,0.92,2.69-0.66,2.38c-2.48-0.49-4.91-1.16-7.46-1.21c-0.85-0.02-2.57-0.21-3.24,0.26
		c-0.81,0.57-0.66,2.13-0.72,2.97c-0.27,3.64-0.3,7.39-0.16,11.08c0.19,0.3,0.27,0.66,0.26,1.04c9.86,2.79,20.17,2.25,30.33,2.13
		c19.44-0.23,38.98-0.56,58.31,1.92c9.73,1.25,19.31,3.28,29.11,4c3.85,0.28,7.72,0.84,11.59,0.8c2.55-0.03,4.96-0.47,7.35-1.11
		c-0.86-0.26-1.71-0.51-2.57-0.79c-11.61-3.84-22.58-9.29-33.88-13.9c-11.52-4.7-23.45-8.18-35.62-10.72
		c-4.92-1.03-9.86-1.84-14.8-2.56c-3.97,0.51-7.93,1.24-11.91,1.65c-7.72,0.8-15.52,0.77-23.23-0.09
		c-7.46-0.83-14.46-2.9-21.75-4.48c-4.12-0.89-7.7-0.39-10.11,3.34c-1.54,2.39-2.32,5.18-3.82,7.56c-0.18,0.28-0.54,0.14-0.57-0.16
		c-0.69-5.67,2.51-12.33,8.41-13.61c3.45-0.75,6.96,0.39,10.24,1.36c4.12,1.21,8.29,2.2,12.53,2.91c8.68,1.46,17.56,1.81,26.33,1.1
		c2.04-0.17,4.08-0.41,6.12-0.66c-4.63-0.61-9.27-1.19-13.91-1.84c-4.18-0.58-8.85-1.8-11.33-5.54c-0.87-1.31-1.3-2.76-1.43-4.23
		c-3.97,0.46-8.14,0.4-12.03,0.49c-5.13,0.13-10.26,0.32-15.4,0.37c-16.87,0.18-33.73,0.29-50.6,0.43
		c-17.84,0.16-35.67-0.25-53.52-0.18c-0.51,0-0.85-0.24-1.05-0.57c-0.21,0.04-0.41,0.04-0.61-0.01c-0.93-0.26-1.7-1.04-2.15-1.88
		c-0.44-0.83-0.63-1.75-0.51-2.69c0.09-0.66,0.37-1.27,0.74-1.82c-0.13-0.86,0.28-1.81,1.27-2.09c1.81-0.51,3.68-0.78,5.57-0.92
		c-0.12-0.3-0.11-0.66,0.16-0.97c3.92-4.76,3.57-11.61,3.19-17.38c-0.21-3.23-0.79-6.34-1.86-9.39c-0.88-2.53-2.29-4.75-3.44-7.12
		c-3.03-0.07-6.06-0.16-9.09-0.28c-1.11-0.04-1.59-0.95-1.48-1.78c-0.29,0.01-0.6-0.09-0.87-0.38c-1.16-1.25-2.38-2.89-2.28-4.7
		c0.11-1.79,1.55-2.99,3.24-3.27c1.9-0.31,3.91,0.03,5.82,0.15c1.94,0.13,3.88,0.26,5.81,0.39c-0.26-0.14-0.51-0.28-0.77-0.42
		c-1.16-0.63-2.49-1.19-3.48-2.09c-0.81-0.73-1.12-1.68-1.27-2.69c-0.02,0-0.04,0-0.06,0c-5.79-1.31-4.17-8.27-2.03-11.89
		c1.25-2.11,2.65-4.43,4.79-5.76c2.45-1.53,5.49-1.28,8.26-1.36c14.67-0.42,29.31-1.31,43.96-2.13c-0.23-0.93-0.44-1.87-0.65-2.8
		c-0.87-4-1.53-8.04-2.15-12.09c-0.4-2.63-0.98-5.43-1.06-8.16c-5.38-2.01-10.5-4.67-15.58-7.33c-6.54-3.42-12.81-7.25-19.11-11.09
		c-0.84-0.51-1.24-1.97-0.34-2.67c0.54-0.42,1.09-0.78,1.67-1.11c2.62-3.72,7.67-5.99,11.76-7.4c4.75-1.63,9.78-2.45,14.76-2.98
		c5.26-0.56,10.55-0.67,15.83-0.74c0.43-0.01,0.86-0.01,1.3-0.02c0-0.18,0.02-0.37,0.1-0.58c4.13-11.05,15.14-19.42,25.25-24.72
		c12.53-6.57,26.78-9.24,40.54-11.97c4.06-5.01,8.75-10.13,14.38-13.38c1.75-2.64,3.73-5.08,6.37-6.96c0.55-0.39,1.08-0.35,1.5-0.11
		c0.58-0.66,1.5-0.98,2.32-0.35c2.75,2.11,4.81,5.61,6.5,8.89c12.66-4.38,25.41-8.33,38.28-12.06c11.77-3.41,23.72-6.27,35.86-7.95
		c10.95-1.51,22.05-2.25,33.11-1.82c11.76,0.45,23.45,2.58,34.94,5.02c11.54,2.45,23.03,5.34,34.22,9.08
		c10.1,3.38,19.7,7.85,29.16,12.73c18.58,9.59,36.68,20.86,50.68,36.64c6.79,7.65,11.99,16.86,16.13,26.17
		c4.5,10.1,8.12,21.25,8.98,32.32c0.06,0.73-1.15,0.89-1.27,0.17c-2.15-12.63-5.36-24.98-11.12-36.49
		c-5.08-10.14-13.06-18.97-21.28-26.67c-15.06-14.11-33.45-24.4-52.19-32.76c-20.21-9.02-41.75-14.33-63.52-18
		c-22.07-3.72-44.55-4.3-66.63-0.43c-21.75,3.81-42.47,11.2-63.44,17.92c1.89,3.99,3.47,8.13,4.75,12.35
		c2.84,9.33,4.51,19.19,4.41,28.96c-0.02,1.95-3.01,1.94-3.02,0c-0.03-9.24-1.71-18.49-4.45-27.3c-1.44-4.64-3.22-9.18-5.48-13.49
		c-1.06-2.02-2.23-3.99-3.55-5.86c-1-1.41-2.25-2.67-3.25-4.08c-3.92,2.87-6.35,7.56-8.71,11.7c-2.33,4.1-4.49,8.3-6.53,12.55
		c-2.19,4.57-4.06,9.33-6.33,13.83c-2.07,4.11-2.9,8.73-4.55,13.01c-0.64,1.65-3.06,1.03-2.67-0.74c1.06-4.92,3.46-9.34,4.93-14.13
		c1.51-4.92,3.98-9.73,6.19-14.38c2.05-4.31,4.24-8.55,6.61-12.7c-3.41,3.43-6.56,7.09-9.44,11c-2.31,3.14-4.5,6.36-6.5,9.71
		c-0.95,1.6-1.86,3.21-2.72,4.86c-0.78,1.5-1.41,3.04-2.62,4.24c-0.84,0.83-2.58,0.27-2.47-1.02c0.3-3.47,2.98-6.96,4.8-9.84
		c1.7-2.69,3.54-5.29,5.46-7.83c-12.13,2.96-24.16,6.22-35.35,11.91c-5.19,2.65-10.12,5.86-14.44,9.79
		c-4.14,3.77-7.23,8.16-10.36,12.73c0.98,0,1.96-0.01,2.94,0.02c2.07,0.07,4.34-0.04,6.29,0.72c0.95,0.37,0.94,1.55,0,1.93
		c-1.94,0.77-4.21,0.69-6.29,0.8c-2.33,0.13-4.67,0.13-7,0.21c-4.86,0.17-9.72,0.42-14.56,0.81C50.84,76,46,76.69,41.36,78.06
		c-1.53,0.45-3.02,0.99-4.47,1.64c0.53-0.05,1.07-0.09,1.6-0.13c4.47-0.34,8.96-0.39,13.44-0.2c9.27,0.39,18.19,1.72,27.2,3.93
		c0.23,0.06,0.19,0.45-0.06,0.42c-3.98-0.5-7.96-0.71-11.97-0.66c-4.49,0.06-8.98-0.28-13.48-0.24c-4.31,0.04-8.63,0.16-12.93,0.51
		c-3.35,0.27-6.79,0.59-10.04,1.53c11.25,6.38,21.98,14.6,34.92,16.86c2.66,0.47,1.54,4.89-1.13,4.1c-0.26-0.08-0.51-0.17-0.76-0.24
		c0.46,2.53,0.67,5.16,1.05,7.63c0.63,4.02,1.36,8.03,2.31,11.98c0.68,2.86,1.43,5.78,2.75,8.42c1.42,2.84,3.83,5.17,5.81,7.63
		c4.97,6.17,9.78,12.52,16.33,17.12c6.66,4.67,14.65,6,22.17,8.73c1.36,0.49,2.73,0.97,4.1,1.4c0.02-0.03,0.03-0.07,0.05-0.1
		c0.37-0.48,1.05-0.62,1.57-0.31c0.12,0.06,0.22,0.14,0.32,0.23c-0.14-0.11-0.16-0.12-0.05-0.04c0.09,0.06,0.18,0.13,0.27,0.19
		c0.19,0.12,0.38,0.24,0.58,0.34c0.2,0.11,0.41,0.2,0.62,0.3c0.01,0,0,0,0.01,0c0.04,0.01,0.07,0.03,0.11,0.04
		c0.11,0.04,0.22,0.09,0.33,0.13c0.74,0.27,1.51,0.46,2.28,0.63c4.55,0.57,8.94-0.23,12.83-4.16c0.83-0.84,1.95,0.38,1.26,1.26
		c-0.28,0.36-0.58,0.68-0.87,1c1.75-0.24,3.49-0.54,5.21-1.14c0.78-0.27,1.53-0.62,2.27-1c-0.24-0.01-0.48,0.01-0.72,0
		c-1.34-0.05-2.71,0.05-4.05-0.05c-1.46-0.11-2.92-0.73-4.27-1.25c-0.19-0.08-0.34-0.19-0.46-0.32c-1.95,0.69-4.13-0.06-5.87-1.02
		c-0.5-0.28-0.95-0.58-1.35-0.99c-0.37-0.38-0.57-0.84-1.04-1.1c-1.08-0.6-2.43-0.89-3.63-0.58c-0.39,0.1-0.55-0.49-0.16-0.59
		c1-0.27,2-0.19,2.98,0.13c0.53,0.17,1.07,0.53,1.62,0.6c0.54,0.06,1,0.02,1.55,0.19c1.03,0.31,1.93,0.94,3.02,1.12
		c0.86,0.15,1.54-0.27,2.14-0.74c0.72-0.57,1.18-1.22,1.71-1.96c0.29-0.41,0.68-0.73,0.98-1.13c0.26-0.35,0.45-0.79,0.68-1.16
		c0.94-1.54,2.14-2.91,4.07-2.94c0.67-0.01,0.78,0.97,0.16,1.15c-1.63,0.47-2.79,2.39-3.2,3.95c-0.31,1.2-0.79,2.46-1.56,3.48
		c0.99,0.29,1.98,0.54,2.96,0.86c1.24,0.41,2.21,0.79,3.53,0.79c2.52-0.01,5.05-0.54,7.53-0.97c4.49-0.78,8.94-1.91,11.51-5.97
		c0.36-0.57,0.91-0.61,1.33-0.37c3.63-4.7,7.66-9.12,11.18-13.89c4.63-6.28,9.6-12.6,12.93-19.7c1.81-3.85,2.7-7.41,2.38-11.67
		c-0.34-4.52-1.08-9-2.07-13.42c-0.91-4.05-2.03-8.07-3.28-12.03c-0.66-2.08-1.36-4.15-2.11-6.19c-0.73-1.99-1.11-4.06-1.82-6.03
		c-0.05-0.14,0.17-0.23,0.24-0.1c1.03,1.96,2.23,3.63,3.1,5.71c0.85,2.02,1.66,4.05,2.43,6.11c1.62,4.36,2.96,8.8,4.03,13.33
		c1.01,4.31,1.76,8.7,2.19,13.11c0.39,3.98-0.35,7.48-1.84,11.19c-1.5,3.74-3.46,7.25-5.63,10.63c0.79,0.03,1.57,0.09,2.35,0.18
		c1.58,0.17,3.13,0.39,4.63,0.92c0.73,0.26,1.54,0.53,2.16,1c0.62,0.47,1.2,0.97,1.72,1.55c0.87,0.98-0.22,2.39-1.38,1.79
		c-0.61-0.31-1.22-0.47-1.88-0.7c-0.68-0.23-1.34-0.47-2.05-0.64c-0.71-0.16-1.43-0.3-2.14-0.42c-0.36-0.06-0.72-0.12-1.08-0.17
		c-0.03,0-0.25-0.04-0.3-0.04c-0.17-0.02-0.34-0.04-0.51-0.07c-0.67-0.08-1.34-0.13-2.01-0.17c-0.34-0.02-0.74-0.02-1.11-0.07
		c0.03,0,0.08-0.01,0.15-0.03c-0.1,0-0.16,0.02-0.18,0.03c-0.14-0.02-0.26-0.05-0.39-0.09c-1.8,2.62-3.69,5.17-5.56,7.72
		c-3.68,5.01-7.41,10.45-12.07,14.71c10.08,1.89,19.2,7.12,29.32,8.78c9.33,1.53,19.34-0.94,27.92-4.62
		c6.98-3,13.97-7.45,17.69-14.3c2.41-4.44,3-9.44,3.07-14.42c0.07-5,0.08-9.97,0.41-14.96c0.68-10.13,2.19-20.18,3.7-30.22
		c0.14-0.94,1.56-0.53,1.43,0.39c-1.78,12.77-3.58,25.6-3.57,38.52c0.01,9.36,0.6,18.56-5.37,26.4c-0.11,0.15-0.24,0.27-0.35,0.42
		c2.02,1.49,4.03,2.99,6.06,4.47c2.03,1.49,4.27,2.87,6.09,4.62c1.29,1.24,2.19,2.76,2.32,4.49c4.31-4.25,8.8-8.32,13.56-12.05
		c15.64-12.24,34.9-19.08,52.91-27.04c0.5-0.22,0.94,0.49,0.44,0.75c-9.26,4.68-18.46,9.5-27.81,14
		c-8.5,4.09-16.59,8.54-23.96,14.48c-7.05,5.69-13.52,12.1-19.62,18.78c-3.04,3.33-5.98,6.73-8.86,10.2c-2.3,2.77-4.4,5.96-6.9,8.6
		c4.22,1.18,8.43,2.4,12.65,3.56c19.97,5.51,40.24,9.94,61.03,10.43c7.29,0.17,14.73,0.05,22.12-0.59
		c3.59-1.74,7.67-2.75,11.33-4.26c4.55-1.87,9-4.04,13.3-6.43c8.53-4.74,16.28-10.42,23.74-16.7c0.96-0.81,2.29,0.46,1.39,1.39
		c-6.8,7.09-15.23,12.85-23.82,17.55c-4.39,2.4-8.92,4.55-13.55,6.44c-0.48,0.2-0.97,0.4-1.47,0.61c9.97-1.7,19.66-4.65,28.56-9.53
		c16.72-9.17,28.98-23.24,38.27-39.73c0.32-0.57,1.33-0.17,1.07,0.45c-1.7,4.07-3.6,8.01-5.84,11.81
		c-8.76,14.89-21.79,27.41-37.57,34.62c-18.68,8.54-40.31,10.22-60.61,9.56c-19.85-0.64-39.18-4.75-58.26-10.04
		c-10.78-2.99-21.48-6.4-32.5-8.45c-6.03-1.12-12.14-1.59-18.25-2.11c-6.14-0.52-12.29-0.94-18.46-0.88
		c-2.52,0.03-5.15,0.07-7.77,0.27c0.03,0.1,0.01,0.2-0.12,0.23c-0.8,0.17-1.67,0.12-2.54,0.03c-2.3,0.28-4.55,0.72-6.69,1.42
		c-3.91,1.28-9.84,3.83-11.69,7.77c-2.51,5.34,3.53,7.45,7.62,8.11c5.68,0.91,11.45,1.34,17.15,2.15
		c11.86,1.68,23.66,3.91,35.2,7.16c11.33,3.19,22.13,7.62,32.9,12.35c11.04,4.85,22.14,9.58,33.97,12.12
		c11.68,2.51,23.67,3.18,35.59,3.28c24.06,0.21,48.91-0.45,71.9-8.31c10.13-3.46,19.92-8.37,28.34-15.04
		c8.83-7,15.85-15.59,21.75-25.16c12.2-19.79,19.6-41.99,16.96-65.42c-0.03-0.28,0.43-0.33,0.48-0.07
		C452.33,140.91,452.72,146.32,452.46,151.9z M223.45,171.39c-0.54-0.78-1.11-1.54-1.69-2.3c-0.02,0.02-0.03,0.03-0.05,0.05
		c0.03-0.04,0.03-0.05,0.04-0.06c0,0,0,0,0,0c-0.03,0.03-0.11,0.14-0.15,0.18c-0.01,0.01-0.07,0.07-0.1,0.1
		c-0.01,0.01-0.02,0.03-0.03,0.04c-0.01,0.01-0.01,0.01-0.01,0.01c-0.01,0.03-0.02,0.06-0.03,0.08c-0.03,0.08-0.05,0.11-0.06,0.15
		c0,0.01,0.01-0.02,0,0c-0.01,0.03-0.02,0.07-0.03,0.1c-0.01,0.03-0.03,0.17-0.03,0.15c0,0.01,0,0.03,0,0.03
		c0,0.02,0.01,0.09,0.01,0.13c0,0.02,0.01,0.04,0.01,0.05c0,0.01,0.01,0.02,0.01,0.03c0.03,0.06,0.06,0.11,0.09,0.17
		c0.01,0.01,0.01,0.02,0.02,0.03c0.11,0.11,0.21,0.21,0.32,0.32c0.01,0.01,0.02,0.01,0.03,0.02c0.07,0.05,0.15,0.1,0.23,0.15
		c0.14,0.08,0.28,0.15,0.43,0.22c0,0,0,0,0,0c0.08,0.03,0.16,0.06,0.25,0.09c0.17,0.06,0.34,0.12,0.52,0.17
		C223.3,171.33,223.37,171.36,223.45,171.39z M225.62,175.59C225.61,175.5,225.59,175.42,225.62,175.59c0,0,0,0.01,0,0.02
		c0,0.02,0.01,0.05,0.01,0.07c0-0.02,0-0.04-0.01-0.07c0.05,0.24,0.09,0.49,0.16,0.73c0.04,0.13,0.08,0.26,0.13,0.39
		c0.02,0.06,0.05,0.12,0.07,0.17c-0.01-0.04-0.02-0.06-0.03-0.09c0.09,0.2,0.21,0.38,0.33,0.56c-0.19-0.66-0.41-1.3-0.66-1.92
		C225.62,175.5,225.62,175.54,225.62,175.59z M226.28,177.42C226.28,177.43,226.28,177.43,226.28,177.42
		C226.29,177.43,226.29,177.43,226.28,177.42C226.28,177.43,226.28,177.43,226.28,177.42z M226.45,184.49
		c0.14-0.64,0.25-1.29,0.31-1.95c0,0-0.01,0.01-0.01,0.01c-0.03,0.05-0.05,0.11-0.08,0.16c-0.01,0.02-0.02,0.04-0.02,0.06
		c-0.04,0.13-0.09,0.25-0.12,0.38c-0.03,0.13-0.05,0.26-0.08,0.39c0,0.01,0,0,0,0c0,0.01,0,0.01,0,0.04c0,0.06-0.01,0.12-0.01,0.18
		c-0.01,0.15-0.01,0.29,0,0.44c0,0.06,0.01,0.12,0.01,0.18c0,0.02,0,0.01,0,0.02C226.44,184.43,226.44,184.46,226.45,184.49z
		 M225.01,194.24c2.23,0.54,4.46,1.11,6.68,1.71c0.09-0.16,0.19-0.33,0.29-0.49c-0.05-1.47,0.44-2.64,0.83-4.05
		c0.37-1.33,0.65-2.69,0.83-4.05c0.09-0.67,0.1-1.35,0.15-2.03c-1.13,0.57-2.32,1.08-3.54,1.11c-0.79,0.02-1.04-0.91-0.6-1.45
		c1.04-1.25,2.77-1.93,4.29-2.59c0.01-1.27-0.01-2.54-0.12-3.79c-0.25-2.81-0.87-5.68-1.94-8.3c-0.52-1.26-1.17-2.47-1.95-3.58
		c-0.38-0.54-0.84-1.08-1.07-1.66c-1.63,0.87-3.31,1.65-5.02,2.35c1.49,1.6,2.7,3.59,3.6,5.46c1.18,2.43,2.19,5.21,2.2,7.95
		c0.01,2.55-0.64,5.14-1.47,7.53C227.49,190.36,226.63,192.79,225.01,194.24z M231.18,163.77c0.34,0.25,0.63,0.51,0.79,0.68
		c1.05,1.14,1.92,2.49,2.64,3.85c1.51,2.86,2.44,5.96,2.9,9.16c0.15,1.07,0.25,2.14,0.31,3.2c0.6-0.27,1.2-0.54,1.79-0.81
		c1.05-0.47,2.1-0.91,3.16-1.37c-0.13-2.47-0.79-4.92-1.66-7.25c-1.37-3.68-3.55-7.09-6.3-9.9
		C233.65,162.22,232.43,163.01,231.18,163.77z M242.39,182.79c0.17-0.7,0.28-1.4,0.33-2.11c-0.72,0.39-1.44,0.79-2.17,1.16
		c-0.89,0.46-1.79,0.92-2.68,1.38c-0.02,1.51-0.13,3.02-0.35,4.55c-0.03,0.23-0.07,0.48-0.11,0.73c0.75-0.85,1.5-1.68,2.2-2.51
		C240.53,184.91,241.46,183.86,242.39,182.79z M238.87,157.7c-0.53,0.55-1.06,1.09-1.62,1.6c4.5,4.64,8.07,11.27,8.49,17.91
		c0.51-0.22,1.02-0.43,1.53-0.65c0.39-0.16,0.8-0.39,1.22-0.55c0.03-0.04,0.07-0.08,0.1-0.11c1.13-1.21,2.28-2.39,3.44-3.57
		c0.06-0.09,0.13-0.17,0.19-0.27c0.48-0.79,0.84-1.67,0.87-2.6c0.07-1.93-1.35-3.19-2.82-4.21
		C246.53,162.66,242.68,160.2,238.87,157.7z M161.18,162.58c-1.3,0.84-2.77,1.46-4.27,1.94c1.82,0.03,3.64,0.1,5.46,0.13
		c2.38,0.04,4.76,0.03,7.14,0.21c0.9,0.07,1.79,0.14,2.69,0.21c-2.31-0.7-4.64-1.3-7.03-1.72c-0.2-0.03-0.33-0.12-0.48-0.19
		c-0.3,0-0.59-0.01-0.89-0.01c-0.31,0-0.62-0.01-0.94-0.01c-0.34,0-0.66-0.07-0.95-0.19C161.62,162.95,161.36,162.8,161.18,162.58z
		 M16.09,150.91c0.04-1.46,0.26-2.91,0.46-4.02c0.52-2.89,1.87-5.8,4.46-7.39c3.12-1.91,6.69-1.2,10.08-0.61
		c0.59,0.1,0.44,1.05-0.14,1.03c-3.51-0.11-7.94,0.03-9.9,3.48c-1.26,2.23-1.45,5.95-0.87,8.43c0.7,3,6.57,1.96,8.91,1.55
		c3.15-0.56,6.17-1.65,9.31-2.24c3.2-0.6,6.36-1.42,9.64-1.49c3.74-0.08,7.17,1.17,10.83,1.64c2.75,0.35,5.52,0.7,8.29,0.99
		c1.45,0.01,2.89,0.01,4.33,0.08c2.02,0.09,3.72,0.23,5.73-0.2c1.09-0.23,2.19-0.45,3.3-0.63c-2.91-3.07-5.66-6.31-8.4-9.47
		c-2.09-2.41-4.41-4.54-5.65-7.52c-0.79-1.88-1.38-3.84-1.9-5.83c-10.97,1.39-21.95,2.23-32.99,2.81c-2.9,0.15-5.81,0.27-8.71,0.37
		c-2.74,0.1-6.17-0.34-8.74,0.71c-2.88,1.18-8.44,9.79-4.98,12.14c-0.01-0.46-0.05-0.91-0.05-1.37c-0.01-1.25-0.15-2.72,0.29-3.92
		c0.52-1.43,1.78-1.87,3.14-2.21c2.86-0.7,5.71-1.18,8.65-1.2c1-0.01,1.23,1.54,0.24,1.76c-2.42,0.53-4.87,1.04-7.26,1.7
		c-0.63,0.17-2.06,0.27-2.23,1.01c-0.1,0.47-0.01,1.07,0.01,1.55c0.02,0.61,0.05,1.21,0.08,1.82c0.07,1.21,0.17,2.42,0.31,3.63
		c0.1,0.92,0.22,1.45,1.04,1.93C14.27,149.92,15.18,150.41,16.09,150.91z M4.63,160.29c13.59-0.54,27.16-0.6,40.76-0.43
		c6.79,0.09,13.58,0.14,20.38,0.11c3.34-0.01,6.6-0.17,9.93-0.44c1.92-0.16,4.69-0.61,6.38,0.57c0.51-1.56,1.31-3,2.41-4.23
		c0.08-0.09,0.2-0.1,0.31-0.15c-0.11-0.1-0.22-0.21-0.33-0.31c-0.4,0.56-1.04,0.94-1.94,0.89c-1.9-0.12-3.7-0.62-5.55-0.97
		c-1.43,0.05-2.88-0.02-4.32-0.14c-0.53,0.03-1.06,0.06-1.61,0.08c-3.51,0.08-7.07,0.02-10.6,0.15c-7.36,0.27-14.67,0.8-22.06,0.23
		c-3.43,1.34-7.08,2.4-10.75,2.74c-3.06,0.28-7.61,0.05-10-2.15c-0.41-0.38-0.7-0.86-0.93-1.37c-0.2-0.11-0.4-0.23-0.59-0.34
		c-0.01,0-0.01-0.01-0.02-0.01c0.05,0.37-0.17,0.77-0.67,0.79c-3.43,0.13-6.86,0.26-10.29,0.39c-0.76,0.03-2.34-0.13-2.62,0.85
		c-0.29,1.03,0.88,2.31,1.5,2.99c0.24,0.26,0.32,0.55,0.32,0.83C4.44,160.34,4.52,160.3,4.63,160.29z M17.51,198.48
		c2.97-0.11,5.97,0,8.89-0.04c5.16-0.08,10.32,0.27,15.47,0.39c17.12,0.41,34.27,0.48,51.39,0.45c8.8-0.02,17.6-0.03,26.4-0.03
		c4.72,0,9.44,0,14.16,0.01c4.08,0.01,8.41-0.32,12.47,0.32c0.07-0.09,0.12-0.19,0.18-0.27c1.31-1.69,3.03-3.13,4.93-4.36
		c-5.14,0.25-10.29,0.78-15.43,0.74c-0.52,0-0.48-0.72,0-0.78c5.67-0.75,11.5-0.89,17.22-1.03c1.83-1.01,3.74-1.84,5.57-2.5
		c5.39-1.93,11.69-2.15,17.36-2.28c6.33-0.15,12.65,0.27,18.95,0.82c6.1,0.53,12.24,0.98,18.29,1.94c3.21,0.51,6.39,1.16,9.55,1.89
		c-0.03-0.22,0-0.46,0.13-0.71c0.35-0.67,0.69-1.36,1.02-2.04c-0.45,0-0.84-0.33-0.97-0.74c-0.14-0.47-0.14-0.98,0.04-1.44
		c0.16-0.42,0.37-0.77,0.67-1.11c0.24-0.26,0.53-0.49,0.85-0.65c0.06-0.03,0.12-0.04,0.18-0.07c-0.04-0.1-0.09-0.19-0.12-0.29
		c-0.12-0.36-0.19-0.75-0.21-1.13c0-0.04,0-0.03,0-0.04c-0.02-0.14-0.04-0.27-0.06-0.41c-0.02-0.16-0.03-0.31-0.03-0.47
		c0-0.37,0.04-0.73,0.11-1.09c0.12-0.65,0.39-1.3,0.77-1.84c0.12-0.17,0.27-0.31,0.4-0.46c-7.97,0.02-15.93,0.04-23.9,0.07
		c-14.64,0.05-29.28,0.02-43.92,0.02c-7.41,0-14.81,0-22.22,0c-3.66,0-7.32,0-10.98,0c-3.73,0-7.51,0.16-11.24-0.07
		c-0.48-0.03-0.48-0.71,0-0.74c4.16-0.26,8.38-0.07,12.55-0.07c4.18,0,8.37,0,12.55,0c28.87,0,57.75,0.03,86.62,0.09
		c-0.81-0.69-1.41-1.61-1.79-2.61c-0.24-0.63-0.38-1.36-0.33-2.04c0.05-0.69,0.18-1.5,0.66-2.03c-0.09-0.05-0.18-0.09-0.27-0.14
		c-0.03-0.01-0.05-0.02-0.08-0.03c-0.16-0.03-0.33-0.13-0.48-0.19c-0.18-0.07-0.37-0.13-0.55-0.2c-0.14-0.05-0.27-0.12-0.41-0.18
		c-6.25-0.01-12.49,0-18.74,0.02c-11.23,0.03-22.46,0.05-33.69,0.19c-5.66,0.07-11.32,0.16-16.97,0.28
		c-5.64,0.12-11.34,0.5-16.97,0.25c-0.42-0.02-0.4-0.6,0-0.64c6.3-0.62,12.74-0.46,19.06-0.56c22.24-0.36,44.48-0.37,66.73,0.2
		c-0.96-0.51-1.78-1.26-1.93-2.4c-0.06-0.46,0.01-0.99,0.23-1.43c-8.38,2.87-17.33,4.38-26.11,2.7c-6.52-1.24-12.65-3.81-18.92-5.88
		c-0.18,0.06-0.36,0.11-0.53,0.14c-0.46,0.07-0.95,0.07-1.42,0.11c-1.1,0.09-2.2,0.17-3.31,0.26c-2.31,0.18-4.64,0.16-6.96,0.2
		c-4.12,0.06-8.28,0.33-12.38-0.12c-0.13,0.21-0.3,0.4-0.51,0.56c-1.89,1.37-3.97,2.46-6.18,3.23c-1.9,0.67-3.93,1.13-5.95,1.11
		c-0.69-0.01-1.94-0.34-2.38-1.06c-6.16,4.19-13.93,1.91-21.09-0.8c-8.22-3.11-16.82-4.32-24.07-9.61c-1.3-0.95-2.55-1.98-3.76-3.04
		c-0.02,0.07,0,0.15-0.04,0.22c-0.93,1.61-1.52,3.43-1.59,5.3c-0.03,0.73,0.03,1.37,0.12,2.02c0.53-1.45,1.35-2.75,2.54-3.59
		c1.01-0.71,1.95,0.62,1.53,1.53c-0.56,1.22-1.29,2.27-1.63,3.6c-0.31,1.21-0.39,2.48-0.25,3.73c0.17,1.55,0.73,2.99,1.56,4.26
		c0.27-1.3,0.93-2.5,1.91-3.56c1.61-1.74,3.75-2.85,5.4-4.54c0.48-0.49,1.39,0.18,0.97,0.75c-1.52,2.05-3.74,3.45-5.27,5.47
		c-1.89,2.5-0.95,6.3,1.84,7.77c1.64,0.87,3.19,1.76,5.14,1.41c2.14-0.38,4.16-1.82,6.02-2.87c2.09-1.18,4.1-2.45,6.1-3.77
		c1.61-1.06,3.98-3.32,6.06-2.91c0.41,0.08,0.64,0.57,0.54,0.95c-0.3,1.09-1.32,1.73-2.25,2.29c-1.1,0.66-2.22,1.28-3.33,1.92
		c-2.15,1.24-4.26,2.53-6.31,3.93c-3.1,2.13-6.5,4.66-10.48,3.35c-2.45-0.81-4.44-2.82-5.57-5.18c-0.48,0.01-0.99-0.18-1.32-0.48
		c-0.53-0.48-0.98-1.03-1.4-1.59c-15.34-0.71-30.63,0.01-45.95,1.05c-0.21,0.01-0.21-0.31,0-0.33c15.12-1.66,30.43-1.66,45.63-1.14
		c-1.32-1.92-2.06-4.2-2.22-6.54c-0.5-0.02-0.99-0.23-1.27-0.76c-0.83-1.56-1.11-3.39-1.06-5.18c-0.75,0.27-1.55,0.41-2.08,0.43
		c-3.65,0.16-7.32-0.55-10.97-0.57c-6.97-0.03-13.93-0.01-20.9,0.07c-10.72,0.14-21.42,0.16-32.13-0.07
		c1.47,1.93,2.48,4.38,3.3,6.55c4.33-0.44,8.79-0.19,13.13-0.19c4.34,0,8.68,0.11,13.02,0.19c8.84,0.17,17.73-0.17,26.56,0.27
		c0.34,0.02,0.33,0.49,0,0.52c-8.89,0.82-17.9,0.71-26.82,0.95c-4.42,0.12-8.86,0.23-13.28,0.18c-4-0.04-8.08,0.07-12.06-0.36
		c1.03,2.99,1.8,6.11,2.25,9.22C22.32,187.12,21.78,193.84,17.51,198.48z M133.9,205.8c3.24,0.09,6.71,0.06,10.02,0.42
		c0.05-1.29,0.32-2.58,0.81-3.81c-4.4,0.48-9.05,0.12-13.39,0.13c-5.16,0.02-10.32,0.05-15.47,0.08
		c-17.13,0.1-34.26,0.28-51.39,0.57c-8.8,0.15-17.6,0.28-26.4,0.6c-4.72,0.17-9.43,0.36-14.16,0.3c-4.25-0.05-8.57,0.19-12.73-0.76
		c-0.03,0.05-0.05,0.09-0.08,0.14c-0.01,0.04-0.03,0.08-0.04,0.12c-0.02,0.06-0.03,0.13-0.05,0.19c0,0,0,0.01,0,0.01
		c0,0.03,0,0.05,0,0.07c0,0.08,0,0.16,0,0.24c0,0.01,0,0.03,0,0.06c0,0.01,0,0.02,0,0.03c0.03,0.13,0.07,0.25,0.11,0.37
		c0.02,0.03,0.03,0.07,0.05,0.1c0.04,0.07,0.08,0.14,0.12,0.21c0.01,0.02,0.04,0.05,0.06,0.09c0.04,0.05,0.09,0.1,0.14,0.14
		c0.04,0.04,0.09,0.08,0.14,0.13c0.17,0.13,0.33,0.27,0.5,0.41c0.1,0.09,0.17,0.19,0.23,0.3c0.02,0,0.03-0.01,0.05-0.01
		c10.53,0.04,21.03-0.32,31.55-0.37c16.85-0.08,33.7-0.09,50.56-0.09c8.59,0,17.19-0.11,25.78,0.07
		C124.83,205.61,129.37,205.68,133.9,205.8z M184.55,137.2c-0.01,0-0.02,0-0.03,0C184.51,137.2,184.52,137.2,184.55,137.2z
		 M98.56,188.95c12.23,0.54,24.49,0.28,36.73,0.22c12.15-0.06,24.31-0.05,36.46-0.19c6.91-0.08,13.82-0.27,20.72-0.35
		c0.12,0,0.12-0.18,0-0.19c-12.24-0.13-24.48-0.39-36.73-0.44c-12.15-0.06-24.31-0.14-36.46-0.17c-6.92-0.02-13.81-0.01-20.72,0.3
		C98.03,188.15,98.03,188.93,98.56,188.95z M40.33,194.86c-0.9,0.04-0.9,1.45,0,1.4c20.63-1.17,41.3-1.67,61.96-1.67
		c5.84,0,11.68,0.03,17.52,0.1c0.41,0.01,0.41-0.63,0-0.64c-20.65-0.53-41.32-0.45-61.97,0.21
		C52.01,194.44,46.17,194.62,40.33,194.86z M22.92,184.99c21.39-0.43,42.79-0.75,64.18-0.22c0.44,0.01,0.44-0.66,0-0.68
		c-21.37-1.03-42.79-1.59-64.18-0.93C21.74,183.19,21.73,185.01,22.92,184.99z M156.78,185.09c9.83,0.56,19.7,0.6,29.54,0.78
		c9.84,0.18,19.7,0.58,29.54,0.38c0.23,0,0.22-0.34,0-0.35c-9.82-0.63-19.7-0.68-29.54-0.94c-9.84-0.26-19.7-0.66-29.54-0.54
		C156.35,184.44,156.36,185.07,156.78,185.09z M225.63,175.61c0-0.01,0-0.01,0-0.02C225.62,175.59,225.63,175.6,225.63,175.61
		C225.63,175.6,225.63,175.61,225.63,175.61z M225.94,176.8c0,0,0,0.01,0.01,0.01C225.87,176.59,225.9,176.72,225.94,176.8z
		 M78.52,85.7c-1.8,1.88-4.29,3.06-6.88,3.31c0.2,0.27,0.4,0.54,0.6,0.81c0.5,0.68-0.19,1.52-0.89,1.56c-0.02,0-0.01,0-0.02,0
		c0,0,0,0,0,0c0.05,0,0.09,0-0.02,0.01c-0.02,0.01-0.04,0.03-0.07,0.05c-0.02,0.01-0.03,0.03-0.04,0.04
		c-0.03,0.03-0.03,0.04-0.04,0.05c-0.02,0.03-0.04,0.06-0.06,0.09c0,0.01-0.03,0.07-0.05,0.11c-0.01,0.02-0.01,0.05-0.02,0.05
		c-0.01,0.05-0.02,0.11-0.04,0.16c0,0,0,0,0,0c0,0.04,0.01,0.12,0,0.17c0.02,0.01,0.04,0.02,0.05,0.03
		c0.68,0.35,0.79,1.29,0.35,1.86c-0.41,0.53-1.42,0.73-1.89,0.13c-0.65-0.83-0.91-1.94-0.55-2.96c0.17-0.5,0.47-0.93,0.84-1.26
		c-0.3-0.45-0.6-0.91-0.91-1.36c-0.4-0.58,0.12-1.55,0.85-1.47c2.77,0.29,5.55-0.66,7.52-2.65C78.07,83.62,79.32,84.87,78.52,85.7z
		 M71.32,91.38C71.25,91.39,71.27,91.39,71.32,91.38C71.32,91.38,71.32,91.38,71.32,91.38z M143.55,66.1
		c1.31,0.44,2.56,1.31,3.76,0.09c0.79-0.8,1.37-1.92,1.87-2.99c0.3,0.33,0.59,0.76,0.78,0.98c0.47,0.53,1,0.96,1.56,1.4
		c1.09,0.85,2.18,1.5,3.43,2.1c0.37,0.18,0.75-0.26,0.45-0.58c-0.93-0.97-1.84-1.91-2.82-2.82c-0.44-0.41-0.86-0.82-1.34-1.19
		c-0.4-0.31-1.48-0.91-1.57-1.44c-0.12-0.76-1.31-0.87-1.64-0.21c-0.36,0.7-0.74,1.39-1.17,2.05c-0.18,0.28-0.37,0.57-0.57,0.84
		c-0.39,0.53-0.47,0.51-1.09,0.26c-1.25-0.51-2.29-0.86-3.67-0.67c-1.31,0.19-2.55,0.74-3.68,1.42c-1.06,0.64-2.63,1.56-3.07,2.76
		c-0.21,0.58,0.41,1,0.91,0.91c0.68-0.12,1.24-0.67,1.8-1.05c0.63-0.43,1.25-0.85,1.93-1.2C140.68,66.08,142.15,65.63,143.55,66.1z"
		/>
</g>
</svg>
